G04 (created by PCBNEW (2013-07-07 BZR 4022)-stable) date 10/18/2013 11:27:31 AM*
%MOIN*%
G04 Gerber Fmt 3.4, Leading zero omitted, Abs format*
%FSLAX34Y34*%
G01*
G70*
G90*
G04 APERTURE LIST*
%ADD10C,0.00590551*%
%ADD11C,0.08*%
%ADD12C,0.06*%
%ADD13R,0.07X0.07*%
%ADD14C,0.07*%
%ADD15R,0.35X0.35*%
%ADD16C,0.0551181*%
%ADD17O,0.1187X0.0593*%
%ADD18R,0.055X0.055*%
%ADD19C,0.055*%
%ADD20R,0.065X0.065*%
%ADD21C,0.065*%
%ADD22C,0.035*%
%ADD23C,0.04*%
%ADD24C,0.03*%
%ADD25C,0.01*%
G04 APERTURE END LIST*
G54D10*
G54D11*
X98800Y-47523D03*
G54D12*
X98800Y-48350D03*
X98800Y-49137D03*
X98798Y-49924D03*
G54D11*
X98800Y-50751D03*
X87625Y-39675D03*
X87625Y-40675D03*
X87625Y-41675D03*
X87625Y-42675D03*
X87625Y-43675D03*
X87625Y-44675D03*
X87625Y-45675D03*
X87625Y-46675D03*
X93625Y-46675D03*
X93625Y-45675D03*
X93625Y-44675D03*
X93625Y-43675D03*
X93625Y-42675D03*
X93625Y-41675D03*
X93625Y-40675D03*
X93625Y-39675D03*
X80700Y-44700D03*
X80700Y-45700D03*
X80700Y-46700D03*
X80700Y-47700D03*
X80700Y-48700D03*
X80700Y-49700D03*
X80700Y-50700D03*
X80700Y-51700D03*
X80700Y-52700D03*
X80700Y-53700D03*
G54D13*
X87175Y-36525D03*
G54D14*
X87175Y-34525D03*
X87175Y-35525D03*
G54D15*
X93675Y-35525D03*
G54D16*
X98550Y-53420D03*
X97550Y-57420D03*
X99550Y-57420D03*
X94030Y-53380D03*
X93030Y-57380D03*
X95030Y-57380D03*
X89610Y-53400D03*
X88610Y-57400D03*
X90610Y-57400D03*
G54D17*
X97775Y-39650D03*
X97775Y-40650D03*
X97775Y-42075D03*
X97775Y-43075D03*
X97200Y-36180D03*
X97200Y-35180D03*
G54D18*
X82700Y-33675D03*
G54D19*
X82700Y-34675D03*
X82700Y-35675D03*
X82700Y-36675D03*
X82700Y-37675D03*
X82700Y-38675D03*
X82700Y-39675D03*
X82700Y-40675D03*
X82700Y-41675D03*
X82700Y-42675D03*
X85700Y-42675D03*
X85700Y-41675D03*
X85700Y-40675D03*
X85700Y-39675D03*
X85700Y-38675D03*
X85700Y-37675D03*
X85700Y-36675D03*
X85700Y-35675D03*
X85700Y-34675D03*
X85700Y-33675D03*
G54D20*
X80300Y-33675D03*
G54D21*
X80300Y-34675D03*
G54D22*
X82310Y-43680D03*
X87000Y-47420D03*
X89320Y-47680D03*
X86140Y-47800D03*
X90080Y-48640D03*
G54D23*
X97200Y-35180D02*
X97200Y-33950D01*
X88415Y-35525D02*
X87175Y-35525D01*
X90860Y-33080D02*
X88415Y-35525D01*
X96330Y-33080D02*
X90860Y-33080D01*
X97200Y-33950D02*
X96330Y-33080D01*
G54D24*
X80700Y-50700D02*
X81910Y-50700D01*
X81910Y-50700D02*
X88610Y-57400D01*
X97550Y-57420D02*
X97550Y-50230D01*
X97550Y-50230D02*
X97855Y-49924D01*
X97855Y-49924D02*
X98798Y-49924D01*
X80700Y-50700D02*
X79840Y-50700D01*
X79840Y-50700D02*
X79700Y-50560D01*
X79700Y-49700D02*
X79700Y-50560D01*
X80700Y-44700D02*
X85475Y-44700D01*
X87125Y-40675D02*
X87625Y-40675D01*
X86600Y-41200D02*
X87125Y-40675D01*
X86600Y-43575D02*
X86600Y-41200D01*
X85475Y-44700D02*
X86600Y-43575D01*
X80700Y-44700D02*
X80175Y-44700D01*
X79700Y-45175D02*
X79700Y-49700D01*
X80175Y-44700D02*
X79700Y-45175D01*
X80700Y-44700D02*
X80700Y-42725D01*
X81750Y-34975D02*
X81750Y-33675D01*
X80250Y-36475D02*
X81750Y-34975D01*
X80250Y-42275D02*
X80250Y-36475D01*
X80700Y-42725D02*
X80250Y-42275D01*
X80300Y-33675D02*
X81750Y-33675D01*
X81750Y-33675D02*
X82700Y-33675D01*
X95030Y-57380D02*
X95030Y-47640D01*
X95030Y-47640D02*
X95290Y-47380D01*
X90610Y-57400D02*
X90610Y-46715D01*
X90610Y-46715D02*
X90650Y-46675D01*
X96250Y-48360D02*
X96260Y-48350D01*
X98800Y-48350D02*
X96260Y-48350D01*
X96260Y-48350D02*
X95290Y-47380D01*
X95290Y-47380D02*
X94585Y-46675D01*
X97200Y-36180D02*
X97200Y-36250D01*
X97200Y-36250D02*
X95300Y-38150D01*
X95300Y-38150D02*
X95300Y-45960D01*
X94585Y-46675D02*
X93625Y-46675D01*
X95300Y-45960D02*
X94585Y-46675D01*
X87175Y-36525D02*
X87175Y-38195D01*
X88640Y-39660D02*
X88640Y-41675D01*
X87175Y-38195D02*
X88640Y-39660D01*
X89425Y-36525D02*
X87175Y-36525D01*
X91050Y-38150D02*
X89425Y-36525D01*
X95300Y-38150D02*
X91050Y-38150D01*
X87625Y-41675D02*
X88640Y-41675D01*
X88640Y-41675D02*
X89175Y-41675D01*
X89175Y-41675D02*
X90650Y-43150D01*
X90650Y-43150D02*
X90650Y-46675D01*
X87625Y-46675D02*
X90650Y-46675D01*
X90650Y-46675D02*
X91830Y-46675D01*
X91830Y-46675D02*
X93625Y-46675D01*
X87625Y-46675D02*
X84325Y-46675D01*
X83350Y-45700D02*
X80700Y-45700D01*
X84325Y-46675D02*
X83350Y-45700D01*
X85700Y-33675D02*
X85700Y-33275D01*
X79300Y-34675D02*
X80300Y-34675D01*
X78950Y-34325D02*
X79300Y-34675D01*
X78950Y-33375D02*
X78950Y-34325D01*
X79775Y-32550D02*
X78950Y-33375D01*
X84975Y-32550D02*
X79775Y-32550D01*
X85700Y-33275D02*
X84975Y-32550D01*
X87175Y-36525D02*
X87050Y-36525D01*
X86375Y-34350D02*
X85700Y-33675D01*
X86375Y-35850D02*
X86375Y-34350D01*
X87050Y-36525D02*
X86375Y-35850D01*
G54D25*
X84620Y-39755D02*
X85700Y-38675D01*
X84620Y-42180D02*
X84620Y-39755D01*
X83520Y-43280D02*
X84620Y-42180D01*
X82710Y-43280D02*
X83520Y-43280D01*
X82310Y-43680D02*
X82710Y-43280D01*
X89060Y-47420D02*
X87000Y-47420D01*
X89320Y-47680D02*
X89060Y-47420D01*
X86200Y-47800D02*
X86140Y-47800D01*
X86580Y-48180D02*
X86200Y-47800D01*
X89620Y-48180D02*
X86580Y-48180D01*
X90080Y-48640D02*
X89620Y-48180D01*
M02*
