G04 (created by PCBNEW (2013-07-07 BZR 4022)-stable) date 10/18/2013 11:27:31 AM*
%MOIN*%
G04 Gerber Fmt 3.4, Leading zero omitted, Abs format*
%FSLAX34Y34*%
G01*
G70*
G90*
G04 APERTURE LIST*
%ADD10C,0.00590551*%
%ADD11C,0.011811*%
%ADD12C,0.012*%
%ADD13C,0.0047*%
%ADD14C,0.005*%
%ADD15C,0.01*%
%ADD16C,0.015*%
%ADD17C,0.008*%
%ADD18C,0.0045*%
%ADD19C,0.0035*%
%ADD20C,0.01125*%
G04 APERTURE END LIST*
G54D10*
G54D11*
X96205Y-37076D02*
X96149Y-37048D01*
X96065Y-37048D01*
X95980Y-37076D01*
X95924Y-37132D01*
X95896Y-37189D01*
X95868Y-37301D01*
X95868Y-37385D01*
X95896Y-37498D01*
X95924Y-37554D01*
X95980Y-37610D01*
X96065Y-37639D01*
X96121Y-37639D01*
X96205Y-37610D01*
X96233Y-37582D01*
X96233Y-37385D01*
X96121Y-37385D01*
X96487Y-37639D02*
X96487Y-37048D01*
X96824Y-37639D01*
X96824Y-37048D01*
X97105Y-37639D02*
X97105Y-37048D01*
X97246Y-37048D01*
X97330Y-37076D01*
X97386Y-37132D01*
X97415Y-37189D01*
X97443Y-37301D01*
X97443Y-37385D01*
X97415Y-37498D01*
X97386Y-37554D01*
X97330Y-37610D01*
X97246Y-37639D01*
X97105Y-37639D01*
X98314Y-37864D02*
X98286Y-37835D01*
X98230Y-37751D01*
X98202Y-37695D01*
X98174Y-37610D01*
X98146Y-37470D01*
X98146Y-37357D01*
X98174Y-37217D01*
X98202Y-37132D01*
X98230Y-37076D01*
X98286Y-36992D01*
X98314Y-36964D01*
X98539Y-37414D02*
X98989Y-37414D01*
X99214Y-37864D02*
X99242Y-37835D01*
X99299Y-37751D01*
X99327Y-37695D01*
X99355Y-37610D01*
X99383Y-37470D01*
X99383Y-37357D01*
X99355Y-37217D01*
X99327Y-37132D01*
X99299Y-37076D01*
X99242Y-36992D01*
X99214Y-36964D01*
X95800Y-33969D02*
X95800Y-33378D01*
X96025Y-33378D01*
X96081Y-33406D01*
X96109Y-33434D01*
X96137Y-33490D01*
X96137Y-33575D01*
X96109Y-33631D01*
X96081Y-33659D01*
X96025Y-33687D01*
X95800Y-33687D01*
X96503Y-33378D02*
X96616Y-33378D01*
X96672Y-33406D01*
X96728Y-33462D01*
X96756Y-33575D01*
X96756Y-33772D01*
X96728Y-33884D01*
X96672Y-33940D01*
X96616Y-33969D01*
X96503Y-33969D01*
X96447Y-33940D01*
X96391Y-33884D01*
X96362Y-33772D01*
X96362Y-33575D01*
X96391Y-33462D01*
X96447Y-33406D01*
X96503Y-33378D01*
X96981Y-33940D02*
X97065Y-33969D01*
X97206Y-33969D01*
X97262Y-33940D01*
X97290Y-33912D01*
X97319Y-33856D01*
X97319Y-33800D01*
X97290Y-33744D01*
X97262Y-33715D01*
X97206Y-33687D01*
X97094Y-33659D01*
X97037Y-33631D01*
X97009Y-33603D01*
X96981Y-33547D01*
X96981Y-33490D01*
X97009Y-33434D01*
X97037Y-33406D01*
X97094Y-33378D01*
X97234Y-33378D01*
X97319Y-33406D01*
X98190Y-34194D02*
X98162Y-34165D01*
X98106Y-34081D01*
X98078Y-34025D01*
X98050Y-33940D01*
X98022Y-33800D01*
X98022Y-33687D01*
X98050Y-33547D01*
X98078Y-33462D01*
X98106Y-33406D01*
X98162Y-33322D01*
X98190Y-33294D01*
X98415Y-33744D02*
X98865Y-33744D01*
X98640Y-33969D02*
X98640Y-33519D01*
X99090Y-34194D02*
X99118Y-34165D01*
X99175Y-34081D01*
X99203Y-34025D01*
X99231Y-33940D01*
X99259Y-33800D01*
X99259Y-33687D01*
X99231Y-33547D01*
X99203Y-33462D01*
X99175Y-33406D01*
X99118Y-33322D01*
X99090Y-33294D01*
G54D10*
X94675Y-47175D02*
X86675Y-47175D01*
X94675Y-39175D02*
X94675Y-47175D01*
X86675Y-39175D02*
X86675Y-47175D01*
X86675Y-39175D02*
X94675Y-39175D01*
X80100Y-44150D02*
X86100Y-44150D01*
X86100Y-44150D02*
X86100Y-54200D01*
X86100Y-54200D02*
X80100Y-54200D01*
X80100Y-54200D02*
X80100Y-44150D01*
G54D12*
X87175Y-34525D02*
X89175Y-34525D01*
X87175Y-35525D02*
X89175Y-35525D01*
X87175Y-36525D02*
X89175Y-36525D01*
X89175Y-37525D02*
X95175Y-37525D01*
X95175Y-37525D02*
X95175Y-33525D01*
X95175Y-33525D02*
X89175Y-33525D01*
X89175Y-33525D02*
X89175Y-37525D01*
X92175Y-37025D02*
X92175Y-33525D01*
X92175Y-37025D02*
X92175Y-37525D01*
G54D13*
X87078Y-37919D02*
X86803Y-37919D01*
X87472Y-37919D02*
X87747Y-37919D01*
X87078Y-38431D02*
X86803Y-38431D01*
X87747Y-38431D02*
X87472Y-38431D01*
X86803Y-38425D02*
X86803Y-37925D01*
X87747Y-37925D02*
X87747Y-38425D01*
X88903Y-37919D02*
X88628Y-37919D01*
X89297Y-37919D02*
X89572Y-37919D01*
X88903Y-38431D02*
X88628Y-38431D01*
X89572Y-38431D02*
X89297Y-38431D01*
X88628Y-38425D02*
X88628Y-37925D01*
X89572Y-37925D02*
X89572Y-38425D01*
G54D14*
X87200Y-33100D02*
X86300Y-33100D01*
X86300Y-33100D02*
X86300Y-32600D01*
X86300Y-32600D02*
X87200Y-32600D01*
X87200Y-32600D02*
X87200Y-33100D01*
X81825Y-41925D02*
X80925Y-41925D01*
X80925Y-41925D02*
X80925Y-41425D01*
X80925Y-41425D02*
X81825Y-41425D01*
X81825Y-41425D02*
X81825Y-41925D01*
X81800Y-40925D02*
X80900Y-40925D01*
X80900Y-40925D02*
X80900Y-40425D01*
X80900Y-40425D02*
X81800Y-40425D01*
X81800Y-40425D02*
X81800Y-40925D01*
G54D10*
X99668Y-55420D02*
G75*
G03X99668Y-55420I-1118J0D01*
G74*
G01*
X95148Y-55380D02*
G75*
G03X95148Y-55380I-1118J0D01*
G74*
G01*
X90728Y-55400D02*
G75*
G03X90728Y-55400I-1118J0D01*
G74*
G01*
G54D15*
X98275Y-41150D02*
X98275Y-39150D01*
X96525Y-41150D02*
X96525Y-39150D01*
X99025Y-39150D02*
X99025Y-41150D01*
X99025Y-39150D02*
X96525Y-39150D01*
X99025Y-41150D02*
X96525Y-41150D01*
X98275Y-43575D02*
X98275Y-41575D01*
X96525Y-43575D02*
X96525Y-41575D01*
X99025Y-41575D02*
X99025Y-43575D01*
X99025Y-41575D02*
X96525Y-41575D01*
X99025Y-43575D02*
X96525Y-43575D01*
X96700Y-34680D02*
X96700Y-36680D01*
X98450Y-34680D02*
X98450Y-36680D01*
X95950Y-36680D02*
X95950Y-34680D01*
X95950Y-36680D02*
X98450Y-36680D01*
X95950Y-34680D02*
X98450Y-34680D01*
G54D14*
X93070Y-48980D02*
X93150Y-48980D01*
X93670Y-49730D02*
X91870Y-49730D01*
X91870Y-49730D02*
X91870Y-49480D01*
X92510Y-48230D02*
X92510Y-49730D01*
X92380Y-48230D02*
X92380Y-49730D01*
X93670Y-48480D02*
X93670Y-48230D01*
X93670Y-48230D02*
X91870Y-48230D01*
X91870Y-48230D02*
X91870Y-48480D01*
X93670Y-49480D02*
X93670Y-49730D01*
X92820Y-48980D02*
X93070Y-49167D01*
X93070Y-49167D02*
X93070Y-48980D01*
X93070Y-48980D02*
X93070Y-48793D01*
X93070Y-48793D02*
X92820Y-48980D01*
X92820Y-48980D02*
X92820Y-49105D01*
X92820Y-49105D02*
X92882Y-49167D01*
X92820Y-48980D02*
X92820Y-48855D01*
X92820Y-48855D02*
X92758Y-48793D01*
X92820Y-48980D02*
X92383Y-48980D01*
X95745Y-51255D02*
X95665Y-51255D01*
X95145Y-50505D02*
X96945Y-50505D01*
X96945Y-50505D02*
X96945Y-50755D01*
X96305Y-52005D02*
X96305Y-50505D01*
X96435Y-52005D02*
X96435Y-50505D01*
X95145Y-51755D02*
X95145Y-52005D01*
X95145Y-52005D02*
X96945Y-52005D01*
X96945Y-52005D02*
X96945Y-51755D01*
X95145Y-50755D02*
X95145Y-50505D01*
X95995Y-51255D02*
X95745Y-51068D01*
X95745Y-51068D02*
X95745Y-51255D01*
X95745Y-51255D02*
X95745Y-51442D01*
X95745Y-51442D02*
X95995Y-51255D01*
X95995Y-51255D02*
X95995Y-51130D01*
X95995Y-51130D02*
X95933Y-51068D01*
X95995Y-51255D02*
X95995Y-51380D01*
X95995Y-51380D02*
X96057Y-51442D01*
X95995Y-51255D02*
X96432Y-51255D01*
X93070Y-51280D02*
X93150Y-51280D01*
X93670Y-52030D02*
X91870Y-52030D01*
X91870Y-52030D02*
X91870Y-51780D01*
X92510Y-50530D02*
X92510Y-52030D01*
X92380Y-50530D02*
X92380Y-52030D01*
X93670Y-50780D02*
X93670Y-50530D01*
X93670Y-50530D02*
X91870Y-50530D01*
X91870Y-50530D02*
X91870Y-50780D01*
X93670Y-51780D02*
X93670Y-52030D01*
X92820Y-51280D02*
X93070Y-51467D01*
X93070Y-51467D02*
X93070Y-51280D01*
X93070Y-51280D02*
X93070Y-51093D01*
X93070Y-51093D02*
X92820Y-51280D01*
X92820Y-51280D02*
X92820Y-51405D01*
X92820Y-51405D02*
X92882Y-51467D01*
X92820Y-51280D02*
X92820Y-51155D01*
X92820Y-51155D02*
X92758Y-51093D01*
X92820Y-51280D02*
X92383Y-51280D01*
X95795Y-48930D02*
X95715Y-48930D01*
X95195Y-48180D02*
X96995Y-48180D01*
X96995Y-48180D02*
X96995Y-48430D01*
X96355Y-49680D02*
X96355Y-48180D01*
X96485Y-49680D02*
X96485Y-48180D01*
X95195Y-49430D02*
X95195Y-49680D01*
X95195Y-49680D02*
X96995Y-49680D01*
X96995Y-49680D02*
X96995Y-49430D01*
X95195Y-48430D02*
X95195Y-48180D01*
X96045Y-48930D02*
X95795Y-48743D01*
X95795Y-48743D02*
X95795Y-48930D01*
X95795Y-48930D02*
X95795Y-49117D01*
X95795Y-49117D02*
X96045Y-48930D01*
X96045Y-48930D02*
X96045Y-48805D01*
X96045Y-48805D02*
X95983Y-48743D01*
X96045Y-48930D02*
X96045Y-49055D01*
X96045Y-49055D02*
X96107Y-49117D01*
X96045Y-48930D02*
X96482Y-48930D01*
G54D16*
X84700Y-32675D02*
X84700Y-33175D01*
X84700Y-33175D02*
X83700Y-33175D01*
X83700Y-33175D02*
X83700Y-32675D01*
X85200Y-32675D02*
X85200Y-43675D01*
X85200Y-43675D02*
X83200Y-43675D01*
X83200Y-43675D02*
X83200Y-32675D01*
X83200Y-32675D02*
X85200Y-32675D01*
G54D17*
X81900Y-34175D02*
G75*
G03X81900Y-34175I-1600J0D01*
G74*
G01*
G54D10*
X98080Y-48807D02*
X98109Y-48723D01*
X98109Y-48582D01*
X98080Y-48526D01*
X98052Y-48498D01*
X97996Y-48469D01*
X97940Y-48469D01*
X97884Y-48498D01*
X97855Y-48526D01*
X97827Y-48582D01*
X97799Y-48694D01*
X97771Y-48751D01*
X97743Y-48779D01*
X97687Y-48807D01*
X97630Y-48807D01*
X97574Y-48779D01*
X97546Y-48751D01*
X97518Y-48694D01*
X97518Y-48554D01*
X97546Y-48469D01*
X97518Y-48273D02*
X98109Y-48132D01*
X97687Y-48020D01*
X98109Y-47907D01*
X97518Y-47766D01*
X98109Y-47232D02*
X98109Y-47570D01*
X98109Y-47401D02*
X97518Y-47401D01*
X97602Y-47457D01*
X97659Y-47513D01*
X97687Y-47570D01*
X99910Y-51414D02*
X99939Y-51330D01*
X99939Y-51189D01*
X99910Y-51133D01*
X99882Y-51105D01*
X99826Y-51076D01*
X99770Y-51076D01*
X99714Y-51105D01*
X99685Y-51133D01*
X99657Y-51189D01*
X99629Y-51301D01*
X99601Y-51358D01*
X99573Y-51386D01*
X99517Y-51414D01*
X99460Y-51414D01*
X99404Y-51386D01*
X99376Y-51358D01*
X99348Y-51301D01*
X99348Y-51161D01*
X99376Y-51076D01*
X99348Y-50880D02*
X99939Y-50739D01*
X99517Y-50626D01*
X99939Y-50514D01*
X99348Y-50373D01*
X99939Y-50148D02*
X99348Y-50148D01*
X99348Y-49952D02*
X99348Y-49614D01*
X99939Y-49783D02*
X99348Y-49783D01*
X99882Y-49080D02*
X99910Y-49108D01*
X99939Y-49192D01*
X99939Y-49249D01*
X99910Y-49333D01*
X99854Y-49389D01*
X99798Y-49417D01*
X99685Y-49445D01*
X99601Y-49445D01*
X99489Y-49417D01*
X99432Y-49389D01*
X99376Y-49333D01*
X99348Y-49249D01*
X99348Y-49192D01*
X99376Y-49108D01*
X99404Y-49080D01*
X99939Y-48827D02*
X99348Y-48827D01*
X99629Y-48827D02*
X99629Y-48489D01*
X99939Y-48489D02*
X99348Y-48489D01*
X99995Y-48349D02*
X99995Y-47899D01*
X99939Y-47758D02*
X99348Y-47758D01*
X99939Y-47477D02*
X99348Y-47477D01*
X99939Y-47139D01*
X99348Y-47139D01*
X99348Y-46943D02*
X99939Y-46746D01*
X99348Y-46549D01*
X90525Y-40673D02*
X90525Y-41151D01*
X90553Y-41207D01*
X90581Y-41235D01*
X90637Y-41264D01*
X90750Y-41264D01*
X90806Y-41235D01*
X90834Y-41207D01*
X90862Y-41151D01*
X90862Y-40673D01*
X91087Y-40673D02*
X91453Y-40673D01*
X91256Y-40898D01*
X91340Y-40898D01*
X91396Y-40926D01*
X91424Y-40954D01*
X91453Y-41010D01*
X91453Y-41151D01*
X91424Y-41207D01*
X91396Y-41235D01*
X91340Y-41264D01*
X91171Y-41264D01*
X91115Y-41235D01*
X91087Y-41207D01*
X88886Y-42673D02*
X89223Y-42673D01*
X89054Y-43264D02*
X89054Y-42673D01*
X89617Y-42954D02*
X89701Y-42982D01*
X89729Y-43010D01*
X89757Y-43067D01*
X89757Y-43151D01*
X89729Y-43207D01*
X89701Y-43235D01*
X89645Y-43264D01*
X89420Y-43264D01*
X89420Y-42673D01*
X89617Y-42673D01*
X89673Y-42701D01*
X89701Y-42729D01*
X89729Y-42785D01*
X89729Y-42842D01*
X89701Y-42898D01*
X89673Y-42926D01*
X89617Y-42954D01*
X89420Y-42954D01*
X90264Y-42673D02*
X90151Y-42673D01*
X90095Y-42701D01*
X90067Y-42729D01*
X90010Y-42814D01*
X89982Y-42926D01*
X89982Y-43151D01*
X90010Y-43207D01*
X90039Y-43235D01*
X90095Y-43264D01*
X90207Y-43264D01*
X90264Y-43235D01*
X90292Y-43207D01*
X90320Y-43151D01*
X90320Y-43010D01*
X90292Y-42954D01*
X90264Y-42926D01*
X90207Y-42898D01*
X90095Y-42898D01*
X90039Y-42926D01*
X90010Y-42954D01*
X89982Y-43010D01*
X90826Y-42673D02*
X90714Y-42673D01*
X90657Y-42701D01*
X90629Y-42729D01*
X90573Y-42814D01*
X90545Y-42926D01*
X90545Y-43151D01*
X90573Y-43207D01*
X90601Y-43235D01*
X90657Y-43264D01*
X90770Y-43264D01*
X90826Y-43235D01*
X90854Y-43207D01*
X90882Y-43151D01*
X90882Y-43010D01*
X90854Y-42954D01*
X90826Y-42926D01*
X90770Y-42898D01*
X90657Y-42898D01*
X90601Y-42926D01*
X90573Y-42954D01*
X90545Y-43010D01*
X91445Y-43264D02*
X91107Y-43264D01*
X91276Y-43264D02*
X91276Y-42673D01*
X91220Y-42757D01*
X91163Y-42814D01*
X91107Y-42842D01*
X91670Y-42729D02*
X91698Y-42701D01*
X91754Y-42673D01*
X91895Y-42673D01*
X91951Y-42701D01*
X91979Y-42729D01*
X92007Y-42785D01*
X92007Y-42842D01*
X91979Y-42926D01*
X91642Y-43264D01*
X92007Y-43264D01*
X82750Y-45848D02*
X82750Y-46326D01*
X82778Y-46382D01*
X82806Y-46410D01*
X82862Y-46439D01*
X82975Y-46439D01*
X83031Y-46410D01*
X83059Y-46382D01*
X83087Y-46326D01*
X83087Y-45848D01*
X83621Y-46045D02*
X83621Y-46439D01*
X83481Y-45820D02*
X83340Y-46242D01*
X83706Y-46242D01*
X81273Y-47939D02*
X81273Y-47348D01*
X81470Y-47770D01*
X81667Y-47348D01*
X81667Y-47939D01*
X81948Y-47939D02*
X81948Y-47348D01*
X82173Y-47348D01*
X82229Y-47376D01*
X82257Y-47404D01*
X82286Y-47460D01*
X82286Y-47545D01*
X82257Y-47601D01*
X82229Y-47629D01*
X82173Y-47657D01*
X81948Y-47657D01*
X82539Y-47348D02*
X82539Y-47826D01*
X82567Y-47882D01*
X82595Y-47910D01*
X82651Y-47939D01*
X82764Y-47939D01*
X82820Y-47910D01*
X82848Y-47882D01*
X82876Y-47826D01*
X82876Y-47348D01*
X83410Y-47348D02*
X83298Y-47348D01*
X83242Y-47376D01*
X83214Y-47404D01*
X83157Y-47489D01*
X83129Y-47601D01*
X83129Y-47826D01*
X83157Y-47882D01*
X83185Y-47910D01*
X83242Y-47939D01*
X83354Y-47939D01*
X83410Y-47910D01*
X83439Y-47882D01*
X83467Y-47826D01*
X83467Y-47685D01*
X83439Y-47629D01*
X83410Y-47601D01*
X83354Y-47573D01*
X83242Y-47573D01*
X83185Y-47601D01*
X83157Y-47629D01*
X83129Y-47685D01*
X83832Y-47348D02*
X83888Y-47348D01*
X83945Y-47376D01*
X83973Y-47404D01*
X84001Y-47460D01*
X84029Y-47573D01*
X84029Y-47714D01*
X84001Y-47826D01*
X83973Y-47882D01*
X83945Y-47910D01*
X83888Y-47939D01*
X83832Y-47939D01*
X83776Y-47910D01*
X83748Y-47882D01*
X83720Y-47826D01*
X83692Y-47714D01*
X83692Y-47573D01*
X83720Y-47460D01*
X83748Y-47404D01*
X83776Y-47376D01*
X83832Y-47348D01*
X84563Y-47348D02*
X84282Y-47348D01*
X84254Y-47629D01*
X84282Y-47601D01*
X84338Y-47573D01*
X84479Y-47573D01*
X84535Y-47601D01*
X84563Y-47629D01*
X84592Y-47685D01*
X84592Y-47826D01*
X84563Y-47882D01*
X84535Y-47910D01*
X84479Y-47939D01*
X84338Y-47939D01*
X84282Y-47910D01*
X84254Y-47882D01*
X84957Y-47348D02*
X85013Y-47348D01*
X85070Y-47376D01*
X85098Y-47404D01*
X85126Y-47460D01*
X85154Y-47573D01*
X85154Y-47714D01*
X85126Y-47826D01*
X85098Y-47882D01*
X85070Y-47910D01*
X85013Y-47939D01*
X84957Y-47939D01*
X84901Y-47910D01*
X84873Y-47882D01*
X84845Y-47826D01*
X84816Y-47714D01*
X84816Y-47573D01*
X84845Y-47460D01*
X84873Y-47404D01*
X84901Y-47376D01*
X84957Y-47348D01*
G54D17*
X89686Y-35829D02*
X90010Y-35829D01*
X90048Y-35810D01*
X90067Y-35791D01*
X90086Y-35753D01*
X90086Y-35677D01*
X90067Y-35639D01*
X90048Y-35620D01*
X90010Y-35601D01*
X89686Y-35601D01*
X89725Y-35429D02*
X89705Y-35410D01*
X89686Y-35372D01*
X89686Y-35277D01*
X89705Y-35239D01*
X89725Y-35220D01*
X89763Y-35201D01*
X89801Y-35201D01*
X89858Y-35220D01*
X90086Y-35448D01*
X90086Y-35201D01*
X91586Y-38391D02*
X91586Y-38582D01*
X91186Y-38582D01*
X91586Y-38258D02*
X91186Y-38258D01*
X91472Y-38125D01*
X91186Y-37991D01*
X91586Y-37991D01*
X91586Y-37591D02*
X91586Y-37820D01*
X91586Y-37705D02*
X91186Y-37705D01*
X91244Y-37744D01*
X91282Y-37782D01*
X91301Y-37820D01*
X91186Y-37344D02*
X91186Y-37305D01*
X91205Y-37267D01*
X91225Y-37248D01*
X91263Y-37229D01*
X91339Y-37210D01*
X91434Y-37210D01*
X91510Y-37229D01*
X91548Y-37248D01*
X91567Y-37267D01*
X91586Y-37305D01*
X91586Y-37344D01*
X91567Y-37382D01*
X91548Y-37401D01*
X91510Y-37420D01*
X91434Y-37439D01*
X91339Y-37439D01*
X91263Y-37420D01*
X91225Y-37401D01*
X91205Y-37382D01*
X91186Y-37344D01*
X91358Y-36982D02*
X91339Y-37020D01*
X91320Y-37039D01*
X91282Y-37058D01*
X91263Y-37058D01*
X91225Y-37039D01*
X91205Y-37020D01*
X91186Y-36982D01*
X91186Y-36905D01*
X91205Y-36867D01*
X91225Y-36848D01*
X91263Y-36829D01*
X91282Y-36829D01*
X91320Y-36848D01*
X91339Y-36867D01*
X91358Y-36905D01*
X91358Y-36982D01*
X91377Y-37020D01*
X91396Y-37039D01*
X91434Y-37058D01*
X91510Y-37058D01*
X91548Y-37039D01*
X91567Y-37020D01*
X91586Y-36982D01*
X91586Y-36905D01*
X91567Y-36867D01*
X91548Y-36848D01*
X91510Y-36829D01*
X91434Y-36829D01*
X91396Y-36848D01*
X91377Y-36867D01*
X91358Y-36905D01*
X91320Y-36486D02*
X91586Y-36486D01*
X91167Y-36582D02*
X91453Y-36677D01*
X91453Y-36429D01*
X91586Y-36277D02*
X91186Y-36277D01*
X91186Y-36144D02*
X91186Y-35915D01*
X91586Y-36029D02*
X91186Y-36029D01*
X91434Y-35782D02*
X91434Y-35477D01*
X91186Y-35325D02*
X91186Y-35077D01*
X91339Y-35210D01*
X91339Y-35153D01*
X91358Y-35115D01*
X91377Y-35096D01*
X91415Y-35077D01*
X91510Y-35077D01*
X91548Y-35096D01*
X91567Y-35115D01*
X91586Y-35153D01*
X91586Y-35267D01*
X91567Y-35305D01*
X91548Y-35325D01*
X91548Y-34905D02*
X91567Y-34886D01*
X91586Y-34905D01*
X91567Y-34925D01*
X91548Y-34905D01*
X91586Y-34905D01*
X91186Y-34753D02*
X91186Y-34505D01*
X91339Y-34639D01*
X91339Y-34582D01*
X91358Y-34544D01*
X91377Y-34525D01*
X91415Y-34505D01*
X91510Y-34505D01*
X91548Y-34525D01*
X91567Y-34544D01*
X91586Y-34582D01*
X91586Y-34696D01*
X91567Y-34734D01*
X91548Y-34753D01*
X91167Y-34048D02*
X91682Y-34391D01*
X91586Y-33915D02*
X91186Y-33915D01*
X91586Y-33686D01*
X91186Y-33686D01*
X91186Y-33420D02*
X91186Y-33344D01*
X91205Y-33305D01*
X91244Y-33267D01*
X91320Y-33248D01*
X91453Y-33248D01*
X91529Y-33267D01*
X91567Y-33305D01*
X91586Y-33344D01*
X91586Y-33420D01*
X91567Y-33458D01*
X91529Y-33496D01*
X91453Y-33515D01*
X91320Y-33515D01*
X91244Y-33496D01*
X91205Y-33458D01*
X91186Y-33420D01*
X91586Y-33077D02*
X91186Y-33077D01*
X91186Y-32925D01*
X91205Y-32886D01*
X91225Y-32867D01*
X91263Y-32848D01*
X91320Y-32848D01*
X91358Y-32867D01*
X91377Y-32886D01*
X91396Y-32925D01*
X91396Y-33077D01*
X91377Y-32544D02*
X91396Y-32486D01*
X91415Y-32467D01*
X91453Y-32448D01*
X91510Y-32448D01*
X91548Y-32467D01*
X91567Y-32486D01*
X91586Y-32525D01*
X91586Y-32677D01*
X91186Y-32677D01*
X91186Y-32544D01*
X91205Y-32505D01*
X91225Y-32486D01*
X91263Y-32467D01*
X91301Y-32467D01*
X91339Y-32486D01*
X91358Y-32505D01*
X91377Y-32544D01*
X91377Y-32677D01*
G54D18*
X87336Y-38205D02*
X87346Y-38213D01*
X87355Y-38239D01*
X87355Y-38256D01*
X87346Y-38282D01*
X87327Y-38299D01*
X87308Y-38307D01*
X87270Y-38316D01*
X87241Y-38316D01*
X87203Y-38307D01*
X87184Y-38299D01*
X87165Y-38282D01*
X87155Y-38256D01*
X87155Y-38239D01*
X87165Y-38213D01*
X87175Y-38205D01*
X87155Y-38145D02*
X87155Y-38033D01*
X87232Y-38093D01*
X87232Y-38067D01*
X87241Y-38050D01*
X87251Y-38042D01*
X87270Y-38033D01*
X87317Y-38033D01*
X87336Y-38042D01*
X87346Y-38050D01*
X87355Y-38067D01*
X87355Y-38119D01*
X87346Y-38136D01*
X87336Y-38145D01*
X88005Y-38290D02*
X88005Y-38393D01*
X88005Y-38342D02*
X87805Y-38342D01*
X87834Y-38359D01*
X87853Y-38376D01*
X87863Y-38393D01*
X87805Y-38179D02*
X87805Y-38162D01*
X87815Y-38144D01*
X87825Y-38136D01*
X87844Y-38127D01*
X87882Y-38119D01*
X87929Y-38119D01*
X87967Y-38127D01*
X87986Y-38136D01*
X87996Y-38144D01*
X88005Y-38162D01*
X88005Y-38179D01*
X87996Y-38196D01*
X87986Y-38204D01*
X87967Y-38213D01*
X87929Y-38222D01*
X87882Y-38222D01*
X87844Y-38213D01*
X87825Y-38204D01*
X87815Y-38196D01*
X87805Y-38179D01*
X87872Y-37964D02*
X88005Y-37964D01*
X87872Y-38042D02*
X87977Y-38042D01*
X87996Y-38033D01*
X88005Y-38016D01*
X88005Y-37990D01*
X87996Y-37973D01*
X87986Y-37964D01*
X89161Y-38205D02*
X89171Y-38213D01*
X89180Y-38239D01*
X89180Y-38256D01*
X89171Y-38282D01*
X89152Y-38299D01*
X89133Y-38307D01*
X89095Y-38316D01*
X89066Y-38316D01*
X89028Y-38307D01*
X89009Y-38299D01*
X88990Y-38282D01*
X88980Y-38256D01*
X88980Y-38239D01*
X88990Y-38213D01*
X89000Y-38205D01*
X89000Y-38136D02*
X88990Y-38127D01*
X88980Y-38110D01*
X88980Y-38067D01*
X88990Y-38050D01*
X89000Y-38042D01*
X89019Y-38033D01*
X89038Y-38033D01*
X89066Y-38042D01*
X89180Y-38145D01*
X89180Y-38033D01*
X89830Y-38290D02*
X89830Y-38393D01*
X89830Y-38342D02*
X89630Y-38342D01*
X89659Y-38359D01*
X89678Y-38376D01*
X89688Y-38393D01*
X89630Y-38179D02*
X89630Y-38162D01*
X89640Y-38144D01*
X89650Y-38136D01*
X89669Y-38127D01*
X89707Y-38119D01*
X89754Y-38119D01*
X89792Y-38127D01*
X89811Y-38136D01*
X89821Y-38144D01*
X89830Y-38162D01*
X89830Y-38179D01*
X89821Y-38196D01*
X89811Y-38204D01*
X89792Y-38213D01*
X89754Y-38222D01*
X89707Y-38222D01*
X89669Y-38213D01*
X89650Y-38204D01*
X89640Y-38196D01*
X89630Y-38179D01*
X89697Y-37964D02*
X89830Y-37964D01*
X89697Y-38042D02*
X89802Y-38042D01*
X89821Y-38033D01*
X89830Y-38016D01*
X89830Y-37990D01*
X89821Y-37973D01*
X89811Y-37964D01*
X86720Y-32930D02*
X86660Y-32835D01*
X86617Y-32930D02*
X86617Y-32730D01*
X86685Y-32730D01*
X86702Y-32740D01*
X86711Y-32750D01*
X86720Y-32769D01*
X86720Y-32797D01*
X86711Y-32816D01*
X86702Y-32826D01*
X86685Y-32835D01*
X86617Y-32835D01*
X86891Y-32930D02*
X86788Y-32930D01*
X86840Y-32930D02*
X86840Y-32730D01*
X86822Y-32759D01*
X86805Y-32778D01*
X86788Y-32788D01*
X81345Y-42255D02*
X81285Y-42160D01*
X81242Y-42255D02*
X81242Y-42055D01*
X81310Y-42055D01*
X81327Y-42065D01*
X81336Y-42075D01*
X81345Y-42094D01*
X81345Y-42122D01*
X81336Y-42141D01*
X81327Y-42151D01*
X81310Y-42160D01*
X81242Y-42160D01*
X81413Y-42075D02*
X81422Y-42065D01*
X81439Y-42055D01*
X81482Y-42055D01*
X81499Y-42065D01*
X81507Y-42075D01*
X81516Y-42094D01*
X81516Y-42113D01*
X81507Y-42141D01*
X81405Y-42255D01*
X81516Y-42255D01*
X81320Y-40305D02*
X81260Y-40210D01*
X81217Y-40305D02*
X81217Y-40105D01*
X81285Y-40105D01*
X81302Y-40115D01*
X81311Y-40125D01*
X81320Y-40144D01*
X81320Y-40172D01*
X81311Y-40191D01*
X81302Y-40201D01*
X81285Y-40210D01*
X81217Y-40210D01*
X81380Y-40105D02*
X81491Y-40105D01*
X81431Y-40182D01*
X81457Y-40182D01*
X81474Y-40191D01*
X81482Y-40201D01*
X81491Y-40220D01*
X81491Y-40267D01*
X81482Y-40286D01*
X81474Y-40296D01*
X81457Y-40305D01*
X81405Y-40305D01*
X81388Y-40296D01*
X81380Y-40286D01*
G54D10*
X98223Y-54959D02*
X98026Y-54677D01*
X97886Y-54959D02*
X97886Y-54368D01*
X98110Y-54368D01*
X98167Y-54396D01*
X98195Y-54424D01*
X98223Y-54480D01*
X98223Y-54565D01*
X98195Y-54621D01*
X98167Y-54649D01*
X98110Y-54677D01*
X97886Y-54677D01*
X98392Y-54368D02*
X98589Y-54959D01*
X98785Y-54368D01*
X98926Y-54368D02*
X99292Y-54368D01*
X99095Y-54593D01*
X99179Y-54593D01*
X99235Y-54621D01*
X99263Y-54649D01*
X99292Y-54705D01*
X99292Y-54846D01*
X99263Y-54902D01*
X99235Y-54930D01*
X99179Y-54959D01*
X99010Y-54959D01*
X98954Y-54930D01*
X98926Y-54902D01*
X97861Y-56284D02*
X97861Y-55693D01*
X98085Y-55693D01*
X98142Y-55721D01*
X98170Y-55749D01*
X98198Y-55805D01*
X98198Y-55890D01*
X98170Y-55946D01*
X98142Y-55974D01*
X98085Y-56002D01*
X97861Y-56002D01*
X98564Y-55693D02*
X98676Y-55693D01*
X98732Y-55721D01*
X98789Y-55777D01*
X98817Y-55890D01*
X98817Y-56087D01*
X98789Y-56199D01*
X98732Y-56255D01*
X98676Y-56284D01*
X98564Y-56284D01*
X98507Y-56255D01*
X98451Y-56199D01*
X98423Y-56087D01*
X98423Y-55890D01*
X98451Y-55777D01*
X98507Y-55721D01*
X98564Y-55693D01*
X98985Y-55693D02*
X99323Y-55693D01*
X99154Y-56284D02*
X99154Y-55693D01*
X93753Y-54944D02*
X93556Y-54662D01*
X93416Y-54944D02*
X93416Y-54353D01*
X93640Y-54353D01*
X93697Y-54381D01*
X93725Y-54409D01*
X93753Y-54465D01*
X93753Y-54550D01*
X93725Y-54606D01*
X93697Y-54634D01*
X93640Y-54662D01*
X93416Y-54662D01*
X93922Y-54353D02*
X94119Y-54944D01*
X94315Y-54353D01*
X94484Y-54409D02*
X94512Y-54381D01*
X94569Y-54353D01*
X94709Y-54353D01*
X94765Y-54381D01*
X94793Y-54409D01*
X94822Y-54465D01*
X94822Y-54522D01*
X94793Y-54606D01*
X94456Y-54944D01*
X94822Y-54944D01*
X93266Y-56169D02*
X93266Y-55578D01*
X93490Y-55578D01*
X93547Y-55606D01*
X93575Y-55634D01*
X93603Y-55690D01*
X93603Y-55775D01*
X93575Y-55831D01*
X93547Y-55859D01*
X93490Y-55887D01*
X93266Y-55887D01*
X93969Y-55578D02*
X94081Y-55578D01*
X94137Y-55606D01*
X94194Y-55662D01*
X94222Y-55775D01*
X94222Y-55972D01*
X94194Y-56084D01*
X94137Y-56140D01*
X94081Y-56169D01*
X93969Y-56169D01*
X93912Y-56140D01*
X93856Y-56084D01*
X93828Y-55972D01*
X93828Y-55775D01*
X93856Y-55662D01*
X93912Y-55606D01*
X93969Y-55578D01*
X94390Y-55578D02*
X94728Y-55578D01*
X94559Y-56169D02*
X94559Y-55578D01*
X89308Y-54914D02*
X89111Y-54632D01*
X88971Y-54914D02*
X88971Y-54323D01*
X89195Y-54323D01*
X89252Y-54351D01*
X89280Y-54379D01*
X89308Y-54435D01*
X89308Y-54520D01*
X89280Y-54576D01*
X89252Y-54604D01*
X89195Y-54632D01*
X88971Y-54632D01*
X89477Y-54323D02*
X89674Y-54914D01*
X89870Y-54323D01*
X90377Y-54914D02*
X90039Y-54914D01*
X90208Y-54914D02*
X90208Y-54323D01*
X90152Y-54407D01*
X90095Y-54464D01*
X90039Y-54492D01*
X88911Y-56174D02*
X88911Y-55583D01*
X89135Y-55583D01*
X89192Y-55611D01*
X89220Y-55639D01*
X89248Y-55695D01*
X89248Y-55780D01*
X89220Y-55836D01*
X89192Y-55864D01*
X89135Y-55892D01*
X88911Y-55892D01*
X89614Y-55583D02*
X89726Y-55583D01*
X89782Y-55611D01*
X89839Y-55667D01*
X89867Y-55780D01*
X89867Y-55977D01*
X89839Y-56089D01*
X89782Y-56145D01*
X89726Y-56174D01*
X89614Y-56174D01*
X89557Y-56145D01*
X89501Y-56089D01*
X89473Y-55977D01*
X89473Y-55780D01*
X89501Y-55667D01*
X89557Y-55611D01*
X89614Y-55583D01*
X90035Y-55583D02*
X90373Y-55583D01*
X90204Y-56174D02*
X90204Y-55583D01*
G54D19*
X99436Y-39695D02*
X99036Y-39695D01*
X99036Y-39542D01*
X99055Y-39504D01*
X99075Y-39485D01*
X99113Y-39466D01*
X99170Y-39466D01*
X99208Y-39485D01*
X99227Y-39504D01*
X99246Y-39542D01*
X99246Y-39695D01*
X99436Y-39085D02*
X99436Y-39314D01*
X99436Y-39199D02*
X99036Y-39199D01*
X99094Y-39238D01*
X99132Y-39276D01*
X99151Y-39314D01*
X96398Y-40997D02*
X96417Y-41016D01*
X96436Y-41073D01*
X96436Y-41111D01*
X96417Y-41169D01*
X96379Y-41207D01*
X96341Y-41226D01*
X96265Y-41245D01*
X96208Y-41245D01*
X96132Y-41226D01*
X96094Y-41207D01*
X96055Y-41169D01*
X96036Y-41111D01*
X96036Y-41073D01*
X96055Y-41016D01*
X96075Y-40997D01*
X96036Y-40749D02*
X96036Y-40673D01*
X96055Y-40635D01*
X96094Y-40597D01*
X96170Y-40578D01*
X96303Y-40578D01*
X96379Y-40597D01*
X96417Y-40635D01*
X96436Y-40673D01*
X96436Y-40749D01*
X96417Y-40788D01*
X96379Y-40826D01*
X96303Y-40845D01*
X96170Y-40845D01*
X96094Y-40826D01*
X96055Y-40788D01*
X96036Y-40749D01*
X96436Y-40407D02*
X96036Y-40407D01*
X96436Y-40178D01*
X96036Y-40178D01*
X96436Y-39988D02*
X96036Y-39988D01*
X96436Y-39759D01*
X96036Y-39759D01*
X96475Y-39664D02*
X96475Y-39359D01*
X96075Y-39283D02*
X96055Y-39264D01*
X96036Y-39226D01*
X96036Y-39130D01*
X96055Y-39092D01*
X96075Y-39073D01*
X96113Y-39054D01*
X96151Y-39054D01*
X96208Y-39073D01*
X96436Y-39302D01*
X96436Y-39054D01*
X99436Y-42120D02*
X99036Y-42120D01*
X99036Y-41967D01*
X99055Y-41929D01*
X99075Y-41910D01*
X99113Y-41891D01*
X99170Y-41891D01*
X99208Y-41910D01*
X99227Y-41929D01*
X99246Y-41967D01*
X99246Y-42120D01*
X99075Y-41739D02*
X99055Y-41720D01*
X99036Y-41682D01*
X99036Y-41586D01*
X99055Y-41548D01*
X99075Y-41529D01*
X99113Y-41510D01*
X99151Y-41510D01*
X99208Y-41529D01*
X99436Y-41758D01*
X99436Y-41510D01*
X96398Y-43422D02*
X96417Y-43441D01*
X96436Y-43498D01*
X96436Y-43536D01*
X96417Y-43594D01*
X96379Y-43632D01*
X96341Y-43651D01*
X96265Y-43670D01*
X96208Y-43670D01*
X96132Y-43651D01*
X96094Y-43632D01*
X96055Y-43594D01*
X96036Y-43536D01*
X96036Y-43498D01*
X96055Y-43441D01*
X96075Y-43422D01*
X96036Y-43174D02*
X96036Y-43098D01*
X96055Y-43060D01*
X96094Y-43022D01*
X96170Y-43003D01*
X96303Y-43003D01*
X96379Y-43022D01*
X96417Y-43060D01*
X96436Y-43098D01*
X96436Y-43174D01*
X96417Y-43213D01*
X96379Y-43251D01*
X96303Y-43270D01*
X96170Y-43270D01*
X96094Y-43251D01*
X96055Y-43213D01*
X96036Y-43174D01*
X96436Y-42832D02*
X96036Y-42832D01*
X96436Y-42603D01*
X96036Y-42603D01*
X96436Y-42413D02*
X96036Y-42413D01*
X96436Y-42184D01*
X96036Y-42184D01*
X96475Y-42089D02*
X96475Y-41784D01*
X96075Y-41708D02*
X96055Y-41689D01*
X96036Y-41651D01*
X96036Y-41555D01*
X96055Y-41517D01*
X96075Y-41498D01*
X96113Y-41479D01*
X96151Y-41479D01*
X96208Y-41498D01*
X96436Y-41727D01*
X96436Y-41479D01*
X96521Y-35955D02*
X96121Y-35955D01*
X96121Y-35802D01*
X96140Y-35764D01*
X96160Y-35745D01*
X96198Y-35726D01*
X96255Y-35726D01*
X96293Y-35745D01*
X96312Y-35764D01*
X96331Y-35802D01*
X96331Y-35955D01*
X96121Y-35593D02*
X96121Y-35345D01*
X96274Y-35479D01*
X96274Y-35421D01*
X96293Y-35383D01*
X96312Y-35364D01*
X96350Y-35345D01*
X96445Y-35345D01*
X96483Y-35364D01*
X96502Y-35383D01*
X96521Y-35421D01*
X96521Y-35536D01*
X96502Y-35574D01*
X96483Y-35593D01*
X98823Y-36527D02*
X98842Y-36546D01*
X98861Y-36603D01*
X98861Y-36641D01*
X98842Y-36699D01*
X98804Y-36737D01*
X98766Y-36756D01*
X98690Y-36775D01*
X98633Y-36775D01*
X98557Y-36756D01*
X98519Y-36737D01*
X98480Y-36699D01*
X98461Y-36641D01*
X98461Y-36603D01*
X98480Y-36546D01*
X98500Y-36527D01*
X98461Y-36279D02*
X98461Y-36203D01*
X98480Y-36165D01*
X98519Y-36127D01*
X98595Y-36108D01*
X98728Y-36108D01*
X98804Y-36127D01*
X98842Y-36165D01*
X98861Y-36203D01*
X98861Y-36279D01*
X98842Y-36318D01*
X98804Y-36356D01*
X98728Y-36375D01*
X98595Y-36375D01*
X98519Y-36356D01*
X98480Y-36318D01*
X98461Y-36279D01*
X98861Y-35937D02*
X98461Y-35937D01*
X98861Y-35708D01*
X98461Y-35708D01*
X98861Y-35518D02*
X98461Y-35518D01*
X98861Y-35289D01*
X98461Y-35289D01*
X98900Y-35194D02*
X98900Y-34889D01*
X98500Y-34813D02*
X98480Y-34794D01*
X98461Y-34756D01*
X98461Y-34660D01*
X98480Y-34622D01*
X98500Y-34603D01*
X98538Y-34584D01*
X98576Y-34584D01*
X98633Y-34603D01*
X98861Y-34832D01*
X98861Y-34584D01*
G54D13*
X93879Y-49964D02*
X93879Y-49570D01*
X93973Y-49570D01*
X94029Y-49589D01*
X94066Y-49626D01*
X94085Y-49664D01*
X94104Y-49739D01*
X94104Y-49795D01*
X94085Y-49870D01*
X94066Y-49908D01*
X94029Y-49945D01*
X93973Y-49964D01*
X93879Y-49964D01*
X94254Y-49608D02*
X94273Y-49589D01*
X94310Y-49570D01*
X94404Y-49570D01*
X94442Y-49589D01*
X94460Y-49608D01*
X94479Y-49645D01*
X94479Y-49683D01*
X94460Y-49739D01*
X94235Y-49964D01*
X94479Y-49964D01*
X91991Y-48037D02*
X91991Y-47643D01*
X92085Y-47643D01*
X92141Y-47662D01*
X92179Y-47699D01*
X92197Y-47737D01*
X92216Y-47812D01*
X92216Y-47868D01*
X92197Y-47943D01*
X92179Y-47981D01*
X92141Y-48018D01*
X92085Y-48037D01*
X91991Y-48037D01*
X92385Y-48037D02*
X92385Y-47643D01*
X92648Y-47643D02*
X92723Y-47643D01*
X92760Y-47662D01*
X92798Y-47699D01*
X92816Y-47774D01*
X92816Y-47906D01*
X92798Y-47981D01*
X92760Y-48018D01*
X92723Y-48037D01*
X92648Y-48037D01*
X92610Y-48018D01*
X92573Y-47981D01*
X92554Y-47906D01*
X92554Y-47774D01*
X92573Y-47699D01*
X92610Y-47662D01*
X92648Y-47643D01*
X92985Y-48037D02*
X92985Y-47643D01*
X93079Y-47643D01*
X93135Y-47662D01*
X93173Y-47699D01*
X93192Y-47737D01*
X93210Y-47812D01*
X93210Y-47868D01*
X93192Y-47943D01*
X93173Y-47981D01*
X93135Y-48018D01*
X93079Y-48037D01*
X92985Y-48037D01*
X93379Y-47831D02*
X93511Y-47831D01*
X93567Y-48037D02*
X93379Y-48037D01*
X93379Y-47643D01*
X93567Y-47643D01*
X97379Y-50689D02*
X97379Y-50295D01*
X97473Y-50295D01*
X97529Y-50314D01*
X97566Y-50351D01*
X97585Y-50389D01*
X97604Y-50464D01*
X97604Y-50520D01*
X97585Y-50595D01*
X97566Y-50633D01*
X97529Y-50670D01*
X97473Y-50689D01*
X97379Y-50689D01*
X97979Y-50689D02*
X97754Y-50689D01*
X97867Y-50689D02*
X97867Y-50295D01*
X97829Y-50351D01*
X97791Y-50389D01*
X97754Y-50408D01*
X95266Y-52516D02*
X95266Y-52122D01*
X95360Y-52122D01*
X95416Y-52141D01*
X95454Y-52178D01*
X95472Y-52216D01*
X95491Y-52291D01*
X95491Y-52347D01*
X95472Y-52422D01*
X95454Y-52460D01*
X95416Y-52497D01*
X95360Y-52516D01*
X95266Y-52516D01*
X95660Y-52516D02*
X95660Y-52122D01*
X95923Y-52122D02*
X95998Y-52122D01*
X96035Y-52141D01*
X96073Y-52178D01*
X96091Y-52253D01*
X96091Y-52385D01*
X96073Y-52460D01*
X96035Y-52497D01*
X95998Y-52516D01*
X95923Y-52516D01*
X95885Y-52497D01*
X95848Y-52460D01*
X95829Y-52385D01*
X95829Y-52253D01*
X95848Y-52178D01*
X95885Y-52141D01*
X95923Y-52122D01*
X96260Y-52516D02*
X96260Y-52122D01*
X96354Y-52122D01*
X96410Y-52141D01*
X96448Y-52178D01*
X96467Y-52216D01*
X96485Y-52291D01*
X96485Y-52347D01*
X96467Y-52422D01*
X96448Y-52460D01*
X96410Y-52497D01*
X96354Y-52516D01*
X96260Y-52516D01*
X96654Y-52310D02*
X96786Y-52310D01*
X96842Y-52516D02*
X96654Y-52516D01*
X96654Y-52122D01*
X96842Y-52122D01*
X92479Y-52463D02*
X92479Y-52069D01*
X92573Y-52069D01*
X92629Y-52088D01*
X92666Y-52125D01*
X92685Y-52163D01*
X92704Y-52238D01*
X92704Y-52294D01*
X92685Y-52369D01*
X92666Y-52407D01*
X92629Y-52444D01*
X92573Y-52463D01*
X92479Y-52463D01*
X93042Y-52200D02*
X93042Y-52463D01*
X92948Y-52050D02*
X92854Y-52332D01*
X93098Y-52332D01*
X91991Y-50337D02*
X91991Y-49943D01*
X92085Y-49943D01*
X92141Y-49962D01*
X92179Y-49999D01*
X92197Y-50037D01*
X92216Y-50112D01*
X92216Y-50168D01*
X92197Y-50243D01*
X92179Y-50281D01*
X92141Y-50318D01*
X92085Y-50337D01*
X91991Y-50337D01*
X92385Y-50337D02*
X92385Y-49943D01*
X92648Y-49943D02*
X92723Y-49943D01*
X92760Y-49962D01*
X92798Y-49999D01*
X92816Y-50074D01*
X92816Y-50206D01*
X92798Y-50281D01*
X92760Y-50318D01*
X92723Y-50337D01*
X92648Y-50337D01*
X92610Y-50318D01*
X92573Y-50281D01*
X92554Y-50206D01*
X92554Y-50074D01*
X92573Y-49999D01*
X92610Y-49962D01*
X92648Y-49943D01*
X92985Y-50337D02*
X92985Y-49943D01*
X93079Y-49943D01*
X93135Y-49962D01*
X93173Y-49999D01*
X93192Y-50037D01*
X93210Y-50112D01*
X93210Y-50168D01*
X93192Y-50243D01*
X93173Y-50281D01*
X93135Y-50318D01*
X93079Y-50337D01*
X92985Y-50337D01*
X93379Y-50131D02*
X93511Y-50131D01*
X93567Y-50337D02*
X93379Y-50337D01*
X93379Y-49943D01*
X93567Y-49943D01*
X95804Y-48065D02*
X95804Y-47671D01*
X95898Y-47671D01*
X95954Y-47690D01*
X95991Y-47727D01*
X96010Y-47765D01*
X96029Y-47840D01*
X96029Y-47896D01*
X96010Y-47971D01*
X95991Y-48009D01*
X95954Y-48046D01*
X95898Y-48065D01*
X95804Y-48065D01*
X96160Y-47671D02*
X96404Y-47671D01*
X96273Y-47821D01*
X96329Y-47821D01*
X96367Y-47840D01*
X96385Y-47859D01*
X96404Y-47896D01*
X96404Y-47990D01*
X96385Y-48027D01*
X96367Y-48046D01*
X96329Y-48065D01*
X96216Y-48065D01*
X96179Y-48046D01*
X96160Y-48027D01*
X95316Y-50191D02*
X95316Y-49797D01*
X95410Y-49797D01*
X95466Y-49816D01*
X95504Y-49853D01*
X95522Y-49891D01*
X95541Y-49966D01*
X95541Y-50022D01*
X95522Y-50097D01*
X95504Y-50135D01*
X95466Y-50172D01*
X95410Y-50191D01*
X95316Y-50191D01*
X95710Y-50191D02*
X95710Y-49797D01*
X95973Y-49797D02*
X96048Y-49797D01*
X96085Y-49816D01*
X96123Y-49853D01*
X96141Y-49928D01*
X96141Y-50060D01*
X96123Y-50135D01*
X96085Y-50172D01*
X96048Y-50191D01*
X95973Y-50191D01*
X95935Y-50172D01*
X95898Y-50135D01*
X95879Y-50060D01*
X95879Y-49928D01*
X95898Y-49853D01*
X95935Y-49816D01*
X95973Y-49797D01*
X96310Y-50191D02*
X96310Y-49797D01*
X96404Y-49797D01*
X96460Y-49816D01*
X96498Y-49853D01*
X96517Y-49891D01*
X96535Y-49966D01*
X96535Y-50022D01*
X96517Y-50097D01*
X96498Y-50135D01*
X96460Y-50172D01*
X96404Y-50191D01*
X96310Y-50191D01*
X96704Y-49985D02*
X96836Y-49985D01*
X96892Y-50191D02*
X96704Y-50191D01*
X96704Y-49797D01*
X96892Y-49797D01*
G54D20*
X84283Y-35017D02*
X84850Y-35017D01*
X84916Y-34996D01*
X84950Y-34975D01*
X84983Y-34932D01*
X84983Y-34846D01*
X84950Y-34803D01*
X84916Y-34782D01*
X84850Y-34760D01*
X84283Y-34760D01*
X84983Y-34310D02*
X84983Y-34567D01*
X84983Y-34439D02*
X84283Y-34439D01*
X84383Y-34482D01*
X84450Y-34525D01*
X84483Y-34567D01*
G54D12*
G54D20*
X84563Y-43125D02*
X83863Y-43125D01*
X84363Y-42975D01*
X83863Y-42825D01*
X84563Y-42825D01*
X84530Y-42632D02*
X84563Y-42568D01*
X84563Y-42461D01*
X84530Y-42418D01*
X84496Y-42397D01*
X84430Y-42375D01*
X84363Y-42375D01*
X84296Y-42397D01*
X84263Y-42418D01*
X84230Y-42461D01*
X84196Y-42547D01*
X84163Y-42589D01*
X84130Y-42611D01*
X84063Y-42632D01*
X83996Y-42632D01*
X83930Y-42611D01*
X83896Y-42589D01*
X83863Y-42547D01*
X83863Y-42439D01*
X83896Y-42375D01*
X84563Y-42182D02*
X83863Y-42182D01*
X83863Y-42011D01*
X83896Y-41968D01*
X83930Y-41947D01*
X83996Y-41925D01*
X84096Y-41925D01*
X84163Y-41947D01*
X84196Y-41968D01*
X84230Y-42011D01*
X84230Y-42182D01*
X84096Y-41539D02*
X84563Y-41539D01*
X83830Y-41647D02*
X84330Y-41754D01*
X84330Y-41475D01*
X83863Y-41347D02*
X83863Y-41068D01*
X84130Y-41218D01*
X84130Y-41154D01*
X84163Y-41111D01*
X84196Y-41089D01*
X84263Y-41068D01*
X84430Y-41068D01*
X84496Y-41089D01*
X84530Y-41111D01*
X84563Y-41154D01*
X84563Y-41282D01*
X84530Y-41325D01*
X84496Y-41347D01*
X83863Y-40789D02*
X83863Y-40747D01*
X83896Y-40704D01*
X83930Y-40682D01*
X83996Y-40661D01*
X84130Y-40639D01*
X84296Y-40639D01*
X84430Y-40661D01*
X84496Y-40682D01*
X84530Y-40704D01*
X84563Y-40747D01*
X84563Y-40789D01*
X84530Y-40832D01*
X84496Y-40854D01*
X84430Y-40875D01*
X84296Y-40897D01*
X84130Y-40897D01*
X83996Y-40875D01*
X83930Y-40854D01*
X83896Y-40832D01*
X83863Y-40789D01*
X83896Y-40211D02*
X83863Y-40254D01*
X83863Y-40318D01*
X83896Y-40382D01*
X83963Y-40425D01*
X84030Y-40447D01*
X84163Y-40468D01*
X84263Y-40468D01*
X84396Y-40447D01*
X84463Y-40425D01*
X84530Y-40382D01*
X84563Y-40318D01*
X84563Y-40275D01*
X84530Y-40211D01*
X84496Y-40189D01*
X84263Y-40189D01*
X84263Y-40275D01*
X83930Y-40018D02*
X83896Y-39997D01*
X83863Y-39954D01*
X83863Y-39847D01*
X83896Y-39804D01*
X83930Y-39782D01*
X83996Y-39761D01*
X84063Y-39761D01*
X84163Y-39782D01*
X84563Y-40039D01*
X84563Y-39761D01*
X83863Y-39354D02*
X83863Y-39568D01*
X84196Y-39590D01*
X84163Y-39568D01*
X84130Y-39525D01*
X84130Y-39418D01*
X84163Y-39375D01*
X84196Y-39354D01*
X84263Y-39332D01*
X84430Y-39332D01*
X84496Y-39354D01*
X84530Y-39375D01*
X84563Y-39418D01*
X84563Y-39525D01*
X84530Y-39568D01*
X84496Y-39590D01*
X83863Y-38925D02*
X83863Y-39140D01*
X84196Y-39161D01*
X84163Y-39140D01*
X84130Y-39097D01*
X84130Y-38990D01*
X84163Y-38947D01*
X84196Y-38925D01*
X84263Y-38904D01*
X84430Y-38904D01*
X84496Y-38925D01*
X84530Y-38947D01*
X84563Y-38990D01*
X84563Y-39097D01*
X84530Y-39140D01*
X84496Y-39161D01*
X83863Y-38754D02*
X83863Y-38475D01*
X84130Y-38625D01*
X84130Y-38561D01*
X84163Y-38518D01*
X84196Y-38497D01*
X84263Y-38475D01*
X84430Y-38475D01*
X84496Y-38497D01*
X84530Y-38518D01*
X84563Y-38561D01*
X84563Y-38690D01*
X84530Y-38732D01*
X84496Y-38754D01*
X84563Y-38282D02*
X83863Y-38282D01*
X84563Y-38068D02*
X83863Y-38068D01*
X84563Y-37811D01*
X83863Y-37811D01*
X83930Y-37618D02*
X83896Y-37597D01*
X83863Y-37554D01*
X83863Y-37447D01*
X83896Y-37404D01*
X83930Y-37382D01*
X83996Y-37361D01*
X84063Y-37361D01*
X84163Y-37382D01*
X84563Y-37640D01*
X84563Y-37361D01*
X83863Y-37082D02*
X83863Y-37040D01*
X83896Y-36997D01*
X83930Y-36975D01*
X83996Y-36954D01*
X84130Y-36932D01*
X84296Y-36932D01*
X84430Y-36954D01*
X84496Y-36975D01*
X84530Y-36997D01*
X84563Y-37040D01*
X84563Y-37082D01*
X84530Y-37125D01*
X84496Y-37147D01*
X84430Y-37168D01*
X84296Y-37190D01*
X84130Y-37190D01*
X83996Y-37168D01*
X83930Y-37147D01*
X83896Y-37125D01*
X83863Y-37082D01*
G54D12*
G54D17*
X79623Y-34233D02*
X79642Y-34250D01*
X79661Y-34300D01*
X79661Y-34333D01*
X79642Y-34383D01*
X79604Y-34416D01*
X79566Y-34433D01*
X79490Y-34450D01*
X79433Y-34450D01*
X79357Y-34433D01*
X79319Y-34416D01*
X79280Y-34383D01*
X79261Y-34333D01*
X79261Y-34300D01*
X79280Y-34250D01*
X79300Y-34233D01*
X79661Y-33900D02*
X79661Y-34100D01*
X79661Y-34000D02*
X79261Y-34000D01*
X79319Y-34033D01*
X79357Y-34066D01*
X79376Y-34100D01*
X81160Y-34566D02*
X81160Y-34766D01*
X81160Y-34666D02*
X80760Y-34666D01*
X80818Y-34700D01*
X80856Y-34733D01*
X80875Y-34766D01*
X80760Y-34350D02*
X80760Y-34316D01*
X80779Y-34283D01*
X80799Y-34266D01*
X80837Y-34250D01*
X80913Y-34233D01*
X81008Y-34233D01*
X81084Y-34250D01*
X81122Y-34266D01*
X81141Y-34283D01*
X81160Y-34316D01*
X81160Y-34350D01*
X81141Y-34383D01*
X81122Y-34400D01*
X81084Y-34416D01*
X81008Y-34433D01*
X80913Y-34433D01*
X80837Y-34416D01*
X80799Y-34400D01*
X80779Y-34383D01*
X80760Y-34350D01*
X80760Y-34016D02*
X80760Y-33983D01*
X80779Y-33950D01*
X80799Y-33933D01*
X80837Y-33916D01*
X80913Y-33900D01*
X81008Y-33900D01*
X81084Y-33916D01*
X81122Y-33933D01*
X81141Y-33950D01*
X81160Y-33983D01*
X81160Y-34016D01*
X81141Y-34050D01*
X81122Y-34066D01*
X81084Y-34083D01*
X81008Y-34100D01*
X80913Y-34100D01*
X80837Y-34083D01*
X80799Y-34066D01*
X80779Y-34050D01*
X80760Y-34016D01*
X80894Y-33599D02*
X81160Y-33599D01*
X80894Y-33749D02*
X81103Y-33749D01*
X81141Y-33733D01*
X81160Y-33699D01*
X81160Y-33649D01*
X81141Y-33616D01*
X81122Y-33599D01*
X80314Y-33204D02*
X80314Y-32747D01*
X80542Y-32975D02*
X80085Y-32975D01*
M02*
