G04 (created by PCBNEW (2013-07-07 BZR 4022)-stable) date 10/18/2013 11:27:31 AM*
%MOIN*%
G04 Gerber Fmt 3.4, Leading zero omitted, Abs format*
%FSLAX34Y34*%
G01*
G70*
G90*
G04 APERTURE LIST*
%ADD10C,0.00590551*%
%ADD11C,0.095748*%
%ADD12C,0.075748*%
%ADD13R,0.085748X0.085748*%
%ADD14C,0.085748*%
%ADD15R,0.365748X0.365748*%
%ADD16R,0.040748X0.060748*%
%ADD17C,0.0708661*%
%ADD18O,0.134448X0.075048*%
%ADD19R,0.078748X0.102348*%
%ADD20R,0.070748X0.070748*%
%ADD21C,0.070748*%
%ADD22R,0.080748X0.080748*%
%ADD23C,0.080748*%
G04 APERTURE END LIST*
G54D10*
G54D11*
X98800Y-47523D03*
G54D12*
X98800Y-48350D03*
X98800Y-49137D03*
X98798Y-49924D03*
G54D11*
X98800Y-50751D03*
X87625Y-39675D03*
X87625Y-40675D03*
X87625Y-41675D03*
X87625Y-42675D03*
X87625Y-43675D03*
X87625Y-44675D03*
X87625Y-45675D03*
X87625Y-46675D03*
X93625Y-46675D03*
X93625Y-45675D03*
X93625Y-44675D03*
X93625Y-43675D03*
X93625Y-42675D03*
X93625Y-41675D03*
X93625Y-40675D03*
X93625Y-39675D03*
X80700Y-44700D03*
X80700Y-45700D03*
X80700Y-46700D03*
X80700Y-47700D03*
X80700Y-48700D03*
X80700Y-49700D03*
X80700Y-50700D03*
X80700Y-51700D03*
X80700Y-52700D03*
X80700Y-53700D03*
G54D13*
X87175Y-36525D03*
G54D14*
X87175Y-34525D03*
X87175Y-35525D03*
G54D15*
X93675Y-35525D03*
G54D16*
X87575Y-38175D03*
X86975Y-38175D03*
X89400Y-38175D03*
X88800Y-38175D03*
X87050Y-32850D03*
X86450Y-32850D03*
X81675Y-41675D03*
X81075Y-41675D03*
X81650Y-40675D03*
X81050Y-40675D03*
G54D17*
X98550Y-53420D03*
X97550Y-57420D03*
X99550Y-57420D03*
X94030Y-53380D03*
X93030Y-57380D03*
X95030Y-57380D03*
X89610Y-53400D03*
X88610Y-57400D03*
X90610Y-57400D03*
G54D18*
X97775Y-39650D03*
X97775Y-40650D03*
X97775Y-42075D03*
X97775Y-43075D03*
X97200Y-36180D03*
X97200Y-35180D03*
G54D19*
X93518Y-48980D03*
X92022Y-48980D03*
X95297Y-51255D03*
X96793Y-51255D03*
X93518Y-51280D03*
X92022Y-51280D03*
X95347Y-48930D03*
X96843Y-48930D03*
G54D20*
X82700Y-33675D03*
G54D21*
X82700Y-34675D03*
X82700Y-35675D03*
X82700Y-36675D03*
X82700Y-37675D03*
X82700Y-38675D03*
X82700Y-39675D03*
X82700Y-40675D03*
X82700Y-41675D03*
X82700Y-42675D03*
X85700Y-42675D03*
X85700Y-41675D03*
X85700Y-40675D03*
X85700Y-39675D03*
X85700Y-38675D03*
X85700Y-37675D03*
X85700Y-36675D03*
X85700Y-35675D03*
X85700Y-34675D03*
X85700Y-33675D03*
G54D22*
X80300Y-33675D03*
G54D23*
X80300Y-34675D03*
M02*
