M48
;DRILL file {Pcbnew (2013-07-07 BZR 4022)-stable} date 10/18/2013 11:27:53 AM
;FORMAT={-:-/ absolute / inch / decimal}
FMAT,2
INCH,TZ
T1C0.024
T2C0.025
T3C0.032
T4C0.039
T5C0.040
T6C0.045
T7C0.050
T8C0.059
T9C0.060
T10C0.120
%
G90
G05
M72
T1
X8.861Y-5.74
X8.961Y-5.34
X9.061Y-5.74
X9.303Y-5.738
X9.403Y-5.338
X9.503Y-5.738
X9.755Y-5.742
X9.855Y-5.342
X9.955Y-5.742
T2
X8.231Y-4.368
X8.614Y-4.78
X8.7Y-4.742
X8.932Y-4.768
X9.008Y-4.864
T3
X8.03Y-3.3675
X8.03Y-3.4675
X8.27Y-3.3675
X8.27Y-3.4675
X8.27Y-3.5675
X8.27Y-3.6675
X8.27Y-3.7675
X8.27Y-3.8675
X8.27Y-3.9675
X8.27Y-4.0675
X8.27Y-4.1675
X8.27Y-4.2675
X8.57Y-3.3675
X8.57Y-3.4675
X8.57Y-3.5675
X8.57Y-3.6675
X8.57Y-3.7675
X8.57Y-3.8675
X8.57Y-3.9675
X8.57Y-4.0675
X8.57Y-4.1675
X8.57Y-4.2675
T4
X9.72Y-3.518
X9.72Y-3.618
X9.7775Y-3.965
X9.7775Y-4.065
X9.7775Y-4.2075
X9.7775Y-4.3075
T5
X9.8798Y-4.9925
X9.88Y-4.835
X9.88Y-4.9137
T6
X8.7175Y-3.4525
X8.7175Y-3.5525
X8.7175Y-3.6525
T7
X8.07Y-4.47
X8.07Y-4.57
X8.07Y-4.67
X8.07Y-4.77
X8.07Y-4.87
X8.07Y-4.97
X8.07Y-5.07
X8.07Y-5.17
X8.07Y-5.27
X8.07Y-5.37
X8.7625Y-3.9675
X8.7625Y-4.0675
X8.7625Y-4.1675
X8.7625Y-4.2675
X8.7625Y-4.3675
X8.7625Y-4.4675
X8.7625Y-4.5675
X8.7625Y-4.6675
X9.3625Y-3.9675
X9.3625Y-4.0675
X9.3625Y-4.1675
X9.3625Y-4.2675
X9.3625Y-4.3675
X9.3625Y-4.4675
X9.3625Y-4.5675
X9.3625Y-4.6675
T8
X9.88Y-4.7523
T9
X9.88Y-5.0752
T10
X9.3675Y-3.5525
T0
M30
